<svg width="128" height="128" viewBox="0 0 20 28" fill="none" xmlns="http://www.w3.org/2000/svg">
  <defs>
    <linearGradient id="g0" x1="2.61774" y1="3.5422" x2="26.2331" y2="26.4187" gradientUnits="userSpaceOnUse">
      <stop stop-color="#C47E0A"/>
      <stop offset="0.13" stop-color="#CB8512"/>
      <stop offset="0.52" stop-color="#DEB84E"/>
      <stop offset="0.83" stop-color="#D8AC40"/>
      <stop offset="1" stop-color="#A57A00"/>
    </linearGradient>
    <linearGradient id="g1" x1="-1.51491" y1="7.80736" x2="22.1005" y2="30.6882" gradientUnits="userSpaceOnUse">
      <stop stop-color="#C47E0A"/>
      <stop offset="0.13" stop-color="#CB8512"/>
      <stop offset="0.52" stop-color="#DEB84E"/>
      <stop offset="0.83" stop-color="#D8AC40"/>
      <stop offset="1" stop-color="#A57A00"/>
    </linearGradient>
  </defs>
  <path d="M2.42033 7.5303L0.0299819 13.874C-0.00434985 13.9693 -0.0129328 14.0602 0.00852457 14.1512C0.0643137 14.4066 0.334676 14.5928 0.617914 14.4976C3.86656 13.3587 14.4665 9.24505 14.7669 3.72839C14.7669 3.72839 15.3763 -1.36391 6.11529 0.359506C6.02517 0.372497 5.98654 0.45044 5.99084 0.519723C5.99942 0.589006 6.03804 0.658289 6.12816 0.66262C7.55722 0.822837 9.82312 0.89212 9.82312 2.45532C9.82312 5.30891 3.78073 6.76819 2.67353 7.27049C2.55766 7.31812 2.47612 7.41338 2.42891 7.5303H2.42033Z" fill="url(#g0)"/>
  <path d="M4.05971 18.6025L1.3475 26.7346C1.30029 26.8732 1.32175 27.0118 1.38183 27.12C1.48483 27.2975 1.70798 27.4101 1.93543 27.3322C5.30853 26.2107 17.2603 21.7419 18.7838 14.6447C19.0627 13.337 18.8567 11.9557 18.1229 10.8472C17.3719 9.70831 15.9299 8.57381 13.1877 8.55215C13.1319 8.55215 13.0847 8.57381 13.0461 8.60845L11.2565 10.124C11.1964 10.1803 11.1664 10.2539 11.1793 10.3319C11.1921 10.4098 11.2351 10.4704 11.308 10.5051C12.544 11.0377 16.0801 13.2764 4.33007 18.3254C4.26999 18.3514 4.2142 18.386 4.17129 18.4336C4.12837 18.4813 4.08975 18.5419 4.06829 18.6069L4.05971 18.5982V18.6025Z" fill="url(#g1)"/>
</svg>
